<?xml version="1.0" encoding="UTF-8"?><svg id="Layer_1" xmlns="http://www.w3.org/2000/svg" viewBox="0 0 270.89 271.74"><defs><style>.cls-1{fill:#f5a524;}</style></defs><path class="cls-1" d="M13.77,266.65c-5.43,1.15-10.26-3.66-9.11-9.09,2.1-9.98,4.16-19.72,6.21-29.46,.27-1.26,.73-2.5,.8-3.76,.66-11.04,6.52-18.8,14.21-26.44C87.13,137.04,148.02,75.8,209.03,14.69c10.31-10.33,24.35-13.46,36.54-7.09,17.33,9.06,26.38,26.88,17.68,44.7-1.61,3.29-4.02,6.35-6.62,8.95C192.47,125.66,128.24,190,63.99,254.31c-1.02,1.02-2.35,2.07-3.7,2.37-15.38,3.36-30.78,6.63-46.52,9.98Zm25.65-43.73c56.35-56.46,112.78-112.99,169-169.32-3.51-3.54-7.24-7.3-10.78-10.87-56.29,56.4-112.71,112.92-169.01,169.34,3.56,3.58,7.34,7.38,10.8,10.86Zm19.62,19.59c56.34-56.45,112.76-112.98,168.86-169.19-3.5-3.52-7.23-7.28-10.77-10.86-56.19,56.3-112.61,112.82-168.85,169.18,3.58,3.61,7.34,7.41,10.76,10.87ZM236.67,64.46c4.84-4.59,10.07-8.93,14.48-13.99,2.14-2.46,3.32-6.17,3.9-9.49,1.52-8.76-3.43-14.79-9.47-20.2-6.91-6.19-17.62-7.3-24.75-1.39-5.3,4.39-9.53,10.09-14.12,15.07,9.69,9.71,19.89,19.92,29.96,30.01ZM20.22,226.33c-1.42,6.26-2.84,12.52-4.28,18.9-1.23,5.44,3.95,10.27,9.79,9.1,6.86-1.37,13.56-2.7,20.17-4.02-8.62-8.05-17.07-15.95-25.68-23.98Z"/><path class="cls-1" d="M269.36,222.9c-15.63,15.66-31.49,31.54-47.21,47.29-2.05,2.06-5.37,2.06-7.43,0-23.63-23.64-47.4-47.44-71.34-71.39-2.13-2.13-2.04-5.6,.18-7.62h0c2.08-1.88,5.26-1.81,7.24,.18,20.99,21.06,42.24,42.36,63.32,63.51,2.05,2.06,5.41,2.05,7.46,0,10.88-10.9,21.53-21.56,32.08-32.12,2.05-2.05,2.05-5.37,0-7.42l-7.82-7.84c-2.07-2.07-5.42-2.06-7.46,.03-5,5.12-10.07,10.31-15.22,15.56-2.14,2.19-5.7,2.1-7.72-.19l-.79-.89c-1.84-2.08-1.74-5.23,.23-7.2,4.99-4.97,10.17-10.13,15.29-15.23,2.05-2.04,2.06-5.34,.04-7.41l-8.46-8.62c-2.06-2.1-5.45-2.1-7.51,0l-7.44,7.6c-2.07,2.12-5.48,2.11-7.54-.02l-.32-.33c-2.02-2.09-1.96-5.43,.14-7.45l7.46-7.18c2.09-2.01,2.16-5.35,.14-7.44l-8.95-9.27c-2.01-2.08-5.3-2.11-7.31-.08-5.08,5.1-10.21,10.26-15.41,15.5-2.14,2.15-5.65,2.06-7.67-.21l-.36-.4c-1.88-2.11-1.75-5.33,.29-7.28,7.79-7.46,15.8-15.14,23.71-22.72,2.07-1.98,5.33-1.94,7.35,.08l71.01,71.14c2.05,2.05,2.05,5.36,0,7.41Z"/><path class="cls-1" d="M127.21,79.69c-5.19,5.54-10.37,11.08-15.57,16.65-1.99,2.12-5.35,2.17-7.38,.09l-1.19-1.21c-1.97-2.01-1.94-5.25,.09-7.22,2.67-2.6,5.33-5.2,7.97-7.78,2.05-2,2.05-5.3,0-7.3-2.82-2.77-5.63-5.53-8.44-8.29-2-1.96-5.2-1.95-7.18,.02-5.14,5.12-10.42,10.37-15.7,15.64-1.98,1.97-5.17,1.99-7.17,.04l-.68-.66c-2.04-1.99-2.05-5.27-.03-7.28,5.26-5.22,10.47-10.38,15.56-15.44,2.02-2.01,2-5.28-.03-7.27-2.91-2.85-5.74-5.63-8.53-8.36-2.01-1.97-5.22-1.94-7.2,.05l-7.65,7.71c-1.98,2-5.34,1.95-7.31-.18l-.87-.94c-1.89-2.03-1.81-5.2,.18-7.13l7.83-7.61c2.06-2,2.08-5.27,.07-7.29l-8.48-8.49c-2.06-2.07-5.29-2.07-7.29-.07L16.23,49.37c-1.96,1.96-1.97,5.19,.02,7.19,21.19,21.21,42.53,42.58,63.92,64,1.97,1.97,1.99,5.17,.05,7.17l-.07,.07c-1.99,2.05-5.27,2.06-7.28,.04C48.9,103.79,25.05,79.88,1.49,56.24c-1.99-1.99-1.99-5.21,0-7.2C17.1,33.4,33.04,17.41,48.91,1.5c2-2,5.23-2.01,7.22,0,23.5,23.55,47.37,47.47,70.96,71.1,1.94,1.95,1.99,5.08,.11,7.09Z"/></svg>