<?xml version="1.0" encoding="UTF-8"?><svg id="Layer_1" xmlns="http://www.w3.org/2000/svg" viewBox="0 0 296.8 262.37"><defs><style>.cls-1{fill:#f5a524;}</style></defs><path class="cls-1" d="M296.72,29.87c-.28-.92-.53-1.86-.78-2.8-.56-2.12-1.15-4.31-2.1-6.39-5.78-12.56-15.83-19.49-29.89-20.62-.97-.08-1.92-.08-2.85-.07h-.45s-40.32,0-40.32,0C158.9,0,97.46,0,36.02,0,20.61,.01,9.62,6.76,3.36,20.07,1.34,24.36,.17,29.57,.16,34.35-.01,92.29-.05,155.66,.06,228.08c.03,19.13,15.35,34.17,34.87,34.24,10.64,.04,21.37,.05,32.04,.05,7.82,0,15.61,0,23.28-.01,7.79,0,15.59-.01,23.38-.01h146.51c19.13,0,31.98-10.3,36.18-29,.03-.12,.09-.22,.15-.33,.06-.13,.13-.27,.18-.41l.14-.34V30.14l-.08-.27Zm-13.35,90.18c0,35.46,0,70.91,0,106.37,0,11.08-5.71,18.99-15.66,21.69-1.87,.51-4.09,.77-6.58,.77-72.57,.04-146.32,.05-225.45,.02-13.28,0-22.21-8.93-22.21-22.21-.02-38.94-.02-77.88-.01-116.81v-27.67c0-.26,.01-.52,.03-.79H283.37v38.63ZM13.46,63c-.01-9.04-.02-18.09,0-27.13,.04-13.62,8.79-22.43,22.31-22.44,75.07-.03,150.13-.02,225.21,0,13.56,0,22.35,8.78,22.39,22.36,.02,7.68,.02,15.37,.01,23.17v8.77H13.49c-.02-.32-.04-.64-.04-.96v-3.77Z"/><path class="cls-1" d="M135.9,211.64c.51,.13,1.02,.19,1.52,.19,2.99,0,5.61-2.2,6.53-5.69,.2-.77,.37-1.54,.53-2.32l1.69-8.02c4.54-21.54,9.08-43.09,13.62-64.63,.87-4.12,1.72-8.25,2.54-12.19l1.07-5.16,.04-.35c.04-2.67-1-4.99-2.85-6.38-1.59-1.19-3.61-1.54-5.55-.95-3.55,1.08-4.57,4.13-5.03,6.33-3.45,16.39-6.91,32.79-10.37,49.18l-5.63,26.67c-1.04,4.91-2.11,9.98-3.11,14.99-.8,4.05,1.21,7.4,5.01,8.34Z"/><path class="cls-1" d="M82.3,163.94c8.85,7.63,18.54,15.88,30.5,25.97,1.5,1.26,3.18,1.89,4.81,1.89,1.82,0,3.58-.79,4.94-2.34,2.44-2.81,2-6.89-1.06-9.7-1.34-1.23-2.73-2.39-4.09-3.52-.61-.51-1.23-1.02-1.83-1.54l-19.01-16.19c.62-.53,1.18-1.01,1.74-1.49l6.71-5.71c5.39-4.58,10.78-9.17,16.15-13.78,3.3-2.84,3.92-6.9,1.5-9.87-1.13-1.39-2.69-2.25-4.38-2.41-1.9-.18-3.89,.52-5.61,1.98-11.78,9.95-21.4,18.15-30.27,25.8-2.38,2.05-2.88,4.14-2.88,5.52s.49,3.41,2.8,5.4Z"/><path class="cls-1" d="M175.63,137.49c1.73,1.53,3.5,3.02,5.26,4.51,.87,.73,1.73,1.46,2.59,2.19l16.77,14.3c-.23,.21-.45,.4-.68,.6-2.56,2.18-5.13,4.36-7.69,6.54-5.43,4.61-10.86,9.23-16.26,13.87-3.29,2.83-3.87,7-1.38,9.92,1.35,1.59,3.08,2.39,4.91,2.39,1.69,0,3.45-.68,5.07-2.05,11.57-9.79,21.13-17.92,30.06-25.6,2.01-1.73,3.04-3.63,3.04-5.63,0-2.02-1.03-3.93-3.06-5.67-9.11-7.84-18.94-16.22-30.06-25.6-1.73-1.46-3.74-2.17-5.63-2-1.68,.15-3.23,1-4.36,2.37-2.45,2.99-1.89,6.96,1.42,9.87Z"/><path class="cls-1" d="M42.45,50.74c5.38-.02,9.9-4.57,9.89-9.95-.01-5.39-4.56-9.92-9.93-9.89-5.44,.03-9.86,4.49-9.85,9.94,.02,5.45,4.49,9.93,9.89,9.91Z"/><path class="cls-1" d="M107.29,50.86c5.48,.03,9.9-4.32,9.94-9.8,.04-5.47-4.35-9.92-9.8-9.95-5.45-.03-9.92,4.37-9.95,9.82-.03,5.47,4.35,9.9,9.82,9.93Z"/><path class="cls-1" d="M74.88,50.8c5.44,0,9.89-4.44,9.89-9.89,0-5.46-4.41-9.87-9.88-9.88-5.48,0-9.87,4.38-9.87,9.86,0,5.47,4.4,9.89,9.86,9.9Z"/></svg>