<?xml version="1.0" encoding="UTF-8"?><svg id="Layer_1" xmlns="http://www.w3.org/2000/svg" viewBox="0 0 229.95 263.12"><defs><style>.cls-1{fill:#f5a524;}</style></defs><path class="cls-1" d="M123.59,0c5.07,.67,10.17,1.19,15.2,2.05,28.14,4.77,52.74,16.9,73.96,35.93,3.97,3.56,4.39,8.45,1.19,12.06-3.18,3.59-8.12,3.75-12.12,.18-14.44-12.89-30.72-22.65-49.33-28.04-43.13-12.48-82.5-4.56-118.11,22.61-2.31,1.76-4.46,3.74-6.68,5.62-3.88,3.28-8.84,3.13-11.94-.37-3.13-3.53-2.79-8.48,1-11.89C39.01,18.19,64.85,5.83,94.47,1.49c3.88-.57,7.77-1,11.66-1.49,5.82,0,11.65,0,17.47,0Z"/><path class="cls-1" d="M118.4,64.16c42.2,2.92,72.83,24.49,91.92,62.85,8.38,16.84,11.71,34.94,11.42,53.72-.32,20.67-16.37,37.88-36.69,39.32-20.28,1.44-38.36-13.15-41.43-33.74-.8-5.39-.46-10.94-1.05-16.37-1.28-11.86-10.79-21.95-22.58-24.32-11.12-2.24-21.92,2.94-28.11,13.55-3.58,6.14-5.16,12.81-4.91,19.91,.27,7.83,2.45,15.19,5.89,22.15,8.48,17.15,21.05,30.67,37.05,41.02,3.67,2.37,7.55,4.19,12.1,4.56,4.29,.34,7.29,4.45,6.96,8.72-.34,4.32-3.83,7.6-8.24,7.54-5.26-.08-10.05-1.98-14.61-4.4-17.42-9.25-30.96-22.72-41.71-39.08-6.98-10.63-12.07-22.11-13.43-34.88-1.98-18.67,3.22-34.95,18.13-46.94,24.4-19.61,61.48-5.95,68.79,25.28,1.39,5.92,1.14,12.22,1.63,18.34,.68,8.54,4.55,15.23,12.01,19.46,13.51,7.67,30.61-.69,33.22-16.33,1.53-9.15,.34-18.31-1.58-27.28-6.04-28.18-20.73-50.52-45.88-65.11-33.36-19.35-76.22-13.53-103.85,13.58-34.97,34.32-38.85,88.08-9.16,127.25,1.71,2.25,3.11,4.58,2.54,7.52-.65,3.39-2.59,5.8-6.01,6.65-3.58,.89-6.55-.25-8.85-3.17-8.07-10.25-14.4-21.5-18.21-33.96-12.16-39.71-5.6-76.14,20.95-108.15,18.84-22.72,43.58-35.08,73.19-37.2,3.16-.23,6.32-.3,10.5-.48Z"/><path class="cls-1" d="M114.81,96.55c35.55-.03,66.66,25.63,73.97,61.22,1.01,4.91,1.38,9.99,1.68,15.01,.36,5.95-2.88,9.74-7.93,9.83-5.01,.09-8.32-3.56-8.44-9.52-.21-11.02-3.08-21.28-8.7-30.74-12.13-20.44-33.97-31.48-56.58-29.07-25,2.67-44.47,21.01-50.95,44.15-4.58,16.35-1.81,31.83,5.36,46.82,7.79,16.29,18.44,30.57,30.54,43.87,1.38,1.51,2.61,3.47,3.08,5.43,.86,3.63-1.01,6.95-4.15,8.58-3.35,1.73-7.15,1.25-9.84-1.74-4.8-5.34-9.6-10.71-14.01-16.38-10.88-13.98-20.05-28.96-25.65-45.91-13.86-41.99,10.02-87.27,52.37-98.9,6.21-1.71,12.75-2.23,19.14-3.3,.04,.22,.07,.44,.11,.66Z"/><path class="cls-1" d="M222.51,106.46c-4.11-.03-6.32-1.69-8.07-4.26-7.24-10.62-15.89-19.93-25.99-27.89-48.42-38.16-117.18-33.31-159.69,11.43-5.05,5.31-9.36,11.34-13.91,17.11-2.31,2.94-5.23,4.18-8.79,3.39-3.28-.73-5.62-2.95-5.99-6.28-.23-2.05,.14-4.63,1.26-6.28,19.17-28.27,45.05-47.53,78.05-56.65,57.32-15.84,115.98,8.02,148.56,55.74,2.05,3.01,2.78,6.07,1.02,9.37-1.54,2.89-4.05,4.3-6.45,4.31Z"/><path class="cls-1" d="M105.89,171.65c.19-1.78,.12-3.54,.59-5.15,1.1-3.77,4.94-6.11,8.76-5.6,4.2,.56,7.17,3.93,7.22,8.62,.09,8.59,1.89,16.81,5.34,24.63,6,13.58,14.92,24.67,28.05,32.03,4.77,2.67,9.89,4.16,15.38,4.43,5,.24,8.55,3.93,8.33,8.52-.22,4.72-4.16,8.11-9.28,7.85-11.82-.58-22.03-5.34-31.12-12.55-20.25-16.06-31.39-37-33.26-62.79Z"/></svg>