<?xml version="1.0" encoding="UTF-8"?><svg id="Layer_1" xmlns="http://www.w3.org/2000/svg" viewBox="0 0 286.08 69.06"><defs><style>.cls-1{fill:#002e42;}.cls-2{fill:#f5a524;}</style></defs><path class="cls-1" d="M8.33,50.04c-2.55-1.09-4.56-2.66-6.04-4.7-1.48-2.05-2.24-4.46-2.29-7.25H9.8c.13,1.87,.79,3.35,1.99,4.44,1.2,1.09,2.84,1.63,4.93,1.63s3.81-.51,5.03-1.54c1.22-1.02,1.83-2.36,1.83-4.02,0-1.35-.41-2.46-1.24-3.33-.83-.87-1.86-1.56-3.1-2.06-1.24-.5-2.95-1.06-5.13-1.67-2.96-.87-5.37-1.73-7.22-2.58-1.85-.85-3.44-2.13-4.77-3.85-1.33-1.72-1.99-4.02-1.99-6.89,0-2.7,.68-5.05,2.03-7.06,1.35-2,3.24-3.54,5.68-4.61,2.44-1.07,5.23-1.6,8.36-1.6,4.7,0,8.53,1.14,11.47,3.43,2.94,2.29,4.56,5.48,4.87,9.57h-10.06c-.09-1.57-.75-2.86-1.99-3.89-1.24-1.02-2.89-1.54-4.93-1.54-1.79,0-3.21,.46-4.28,1.37s-1.6,2.24-1.6,3.99c0,1.22,.4,2.23,1.21,3.04,.8,.81,1.81,1.46,3,1.96,1.2,.5,2.88,1.08,5.06,1.73,2.96,.87,5.38,1.74,7.25,2.61,1.87,.87,3.48,2.18,4.83,3.92,1.35,1.74,2.03,4.03,2.03,6.86,0,2.44-.63,4.7-1.89,6.79-1.26,2.09-3.11,3.76-5.55,5-2.44,1.24-5.34,1.86-8.69,1.86-3.18,0-6.04-.54-8.59-1.63Z"/><path class="cls-2" d="M91.82,15.03l-10.58,36.19h-9.86l-6.6-25.28-6.6,25.28h-9.93L37.59,15.03h9.28l6.4,27.57,6.92-27.57h9.67l6.79,27.5,6.4-27.5h8.75Z"/><path class="cls-2" d="M136.89,15.03l-10.58,36.19h-9.86l-6.6-25.28-6.6,25.28h-9.93l-10.65-36.19h9.28l6.4,27.57,6.92-27.57h9.67l6.79,27.5,6.4-27.5h8.75Z"/><path class="cls-2" d="M182.51,14.96l-10.58,36.19h-9.86l-6.6-25.28-6.6,25.28h-9.93l-10.65-36.19h9.28l6.4,27.57,6.92-27.57h9.67l6.79,27.5,6.4-27.5h8.75Z"/><path class="cls-1" d="M190.01,9.18c-1.07-1.02-1.6-2.3-1.6-3.82s.53-2.8,1.6-3.82c1.07-1.02,2.41-1.54,4.02-1.54s2.95,.51,4.02,1.54c1.07,1.02,1.6,2.3,1.6,3.82s-.53,2.8-1.6,3.82c-1.07,1.02-2.41,1.54-4.02,1.54s-2.95-.51-4.02-1.54Zm8.53,5.85V51.22h-9.15V15.03h9.15Z"/><path class="cls-1" d="M238.06,18.59c2.66,2.72,3.99,6.52,3.99,11.4v21.23h-9.15V31.23c0-2.87-.72-5.08-2.15-6.63-1.44-1.55-3.4-2.32-5.88-2.32s-4.52,.77-5.98,2.32c-1.46,1.55-2.19,3.76-2.19,6.63v19.99h-9.15V15.03h9.15v4.51c1.22-1.57,2.78-2.8,4.67-3.69,1.89-.89,3.97-1.34,6.24-1.34,4.31,0,7.8,1.36,10.45,4.08Z"/><path class="cls-1" d="M272.04,16.04c2.05,1.07,3.66,2.45,4.83,4.15v-5.16h9.21V51.48c0,3.35-.68,6.35-2.02,8.98-1.35,2.63-3.38,4.73-6.08,6.27s-5.97,2.32-9.8,2.32c-5.14,0-9.35-1.2-12.64-3.59-3.29-2.4-5.15-5.66-5.59-9.8h9.08c.48,1.65,1.51,2.97,3.1,3.95,1.59,.98,3.52,1.47,5.78,1.47,2.66,0,4.81-.8,6.47-2.38,1.65-1.59,2.48-4,2.48-7.22v-5.62c-1.18,1.7-2.8,3.11-4.87,4.25-2.07,1.13-4.43,1.7-7.09,1.7-3.05,0-5.84-.78-8.36-2.35s-4.52-3.78-5.98-6.63c-1.46-2.85-2.19-6.13-2.19-9.83s.73-6.9,2.19-9.73c1.46-2.83,3.44-5.01,5.94-6.53,2.5-1.52,5.3-2.29,8.4-2.29,2.7,0,5.07,.53,7.12,1.6Zm3.53,11.37c-.87-1.59-2.05-2.81-3.53-3.66-1.48-.85-3.07-1.27-4.77-1.27s-3.27,.41-4.7,1.24c-1.44,.83-2.6,2.04-3.49,3.63-.89,1.59-1.34,3.47-1.34,5.65s.45,4.08,1.34,5.72c.89,1.63,2.07,2.89,3.53,3.76,1.46,.87,3.02,1.31,4.67,1.31s3.29-.42,4.77-1.27c1.48-.85,2.66-2.07,3.53-3.66,.87-1.59,1.31-3.49,1.31-5.72s-.44-4.13-1.31-5.72Z"/></svg>